<svg preserveAspectRatio="none" overflow="visible" style="display: block;" width="16" height="16" viewBox="0 0 16 16" fill="none" xmlns="http://www.w3.org/2000/svg">
<g id="system-hands-clapping">
<path id="Vector" d="M10.3493 1.00009V1.93341M12.6826 1.75956L12.2159 2.5243M14.2961 3.80006L13.4187 4.08297M4.37776 8.69471L3.26944 6.77499C3.13021 6.5338 3.09249 6.24717 3.16458 5.97817C3.23667 5.70917 3.41267 5.47982 3.65386 5.34059C3.89505 5.20135 4.18167 5.16363 4.45067 5.23572C4.71967 5.30781 4.94902 5.48381 5.08825 5.725L5.4225 6.30832M5.4225 6.30832L6.93972 8.93327M5.4225 6.30832C5.35055 6.18882 5.3037 6.05615 5.28359 5.91811C5.26348 5.78007 5.27107 5.6394 5.30593 5.50433C5.3408 5.36926 5.40222 5.24249 5.48663 5.13143C5.57103 5.02036 5.67672 4.92723 5.79752 4.85747C5.91833 4.78771 6.05182 4.74272 6.1902 4.72513C6.32859 4.70754 6.46909 4.7177 6.6035 4.75502C6.73792 4.79233 6.86354 4.85606 6.97305 4.94248C7.08256 5.0289 7.17375 5.13627 7.24129 5.25832M5.08825 5.725L4.34683 4.44168C4.27788 4.32225 4.23314 4.19042 4.21515 4.0537C4.19715 3.91699 4.20626 3.77806 4.24196 3.64487C4.27766 3.51167 4.33924 3.38681 4.42319 3.27741C4.50714 3.16802 4.61182 3.07622 4.73124 3.00728C4.85066 2.93834 4.9825 2.89359 5.11922 2.8756C5.25593 2.85761 5.39486 2.86672 5.52805 2.90241C5.66125 2.93811 5.78611 2.99969 5.89551 3.08364C6.0049 3.16759 6.09669 3.27227 6.16564 3.39169L6.4993 3.97502M6.4993 3.97502L7.24129 5.25832L9.36752 8.93327M6.4993 3.97502C6.42735 3.85551 6.37995 3.72285 6.35983 3.58481C6.33972 3.44677 6.34732 3.3061 6.38218 3.17103C6.41704 3.03596 6.47847 2.90919 6.56288 2.79812C6.64728 2.68706 6.75297 2.59392 6.87377 2.52416C6.99457 2.4544 7.12806 2.40941 7.26645 2.39182C7.40483 2.37423 7.54534 2.38439 7.67975 2.42171C7.81416 2.45903 7.93979 2.52276 8.0493 2.60918C8.15881 2.69559 8.25 2.80296 8.31754 2.92502L10.4758 6.6583M12.1576 11.4859C12.7947 10.8301 13.2004 9.98421 13.3131 9.07679C13.4257 8.16937 13.2392 7.24998 12.7817 6.45824L11.5515 4.32502C11.4825 4.20559 11.3908 4.10092 11.2814 4.01697C11.172 3.93302 11.0471 3.87143 10.9139 3.83574C10.6449 3.76365 10.3583 3.80137 10.1171 3.94061C9.8759 4.07984 9.69991 4.30919 9.62781 4.57819C9.55572 4.84719 9.59344 5.13381 9.73268 5.375M5.32157 10.3333L4.14209 8.29168C4.00285 8.05049 3.7735 7.8745 3.5045 7.8024C3.2355 7.73031 2.94888 7.76804 2.70769 7.90727C2.4665 8.04651 2.2905 8.27586 2.21841 8.54486C2.14632 8.81386 2.18404 9.10048 2.32328 9.34167L4.37775 12.9C4.9347 13.8646 5.85205 14.5686 6.928 14.8569C8.00396 15.1452 9.15037 14.9943 10.1151 14.4373C11.0797 13.8804 11.7837 12.963 12.072 11.8871C12.3603 10.8111 12.2094 9.66469 11.6524 8.70001L10.4741 6.65837C10.4084 6.53289 10.3181 6.42199 10.2085 6.33233C10.0989 6.24267 9.97226 6.17611 9.83626 6.13666C9.70026 6.0972 9.55768 6.08567 9.4171 6.10274C9.27652 6.11982 9.14085 6.16515 9.01825 6.23602C8.89565 6.30689 8.78865 6.40182 8.70369 6.51512C8.61873 6.62841 8.55756 6.75772 8.52387 6.89526C8.49018 7.03281 8.48466 7.17574 8.50765 7.31548C8.53063 7.45521 8.58164 7.58885 8.65761 7.70836" stroke="#4A4A4A" stroke-width="1.5" stroke-linecap="round" stroke-linejoin="round"/>
</g>
</svg>
