<svg preserveAspectRatio="none" overflow="visible" style="display: block;" width="16" height="16" viewBox="0 0 16 16" fill="none" xmlns="http://www.w3.org/2000/svg">
<g id="system-cursor-click" clip-path="url(#clip0_0_1087)">
<path id="Vector" d="M6.73998 1.7V2.20399" stroke="#4A4A4A" stroke-width="1.5" stroke-linecap="round" stroke-linejoin="round"/>
<path id="Vector_2" d="M1.7 6.73998H2.204" stroke="#4A4A4A" stroke-width="1.5" stroke-linecap="round" stroke-linejoin="round"/>
<path id="Vector_3" d="M8.75597 2.70799L9.25997 1.7" stroke="#4A4A4A" stroke-width="1.5" stroke-linecap="round" stroke-linejoin="round"/>
<path id="Vector_4" d="M2.708 8.75597L1.7 9.25996" stroke="#4A4A4A" stroke-width="1.5" stroke-linecap="round" stroke-linejoin="round"/>
<path id="Vector_5" d="M10.92 9.40795C10.8618 9.3499 10.8187 9.27851 10.7945 9.19998C10.7702 9.12146 10.7655 9.03819 10.7808 8.95744C10.7961 8.87668 10.8309 8.80089 10.8821 8.73666C10.9334 8.67244 10.9996 8.62173 11.075 8.58896L13.9988 7.4663C14.0907 7.42458 14.1679 7.35624 14.2205 7.27014C14.2731 7.18404 14.2986 7.08413 14.2938 6.98336C14.289 6.88258 14.254 6.78557 14.1935 6.70488C14.1329 6.62419 14.0495 6.56353 13.9541 6.53076L3.86975 3.23777C3.78218 3.21081 3.68892 3.20822 3.59999 3.2303C3.51107 3.25238 3.42984 3.29828 3.36505 3.36307C3.30026 3.42786 3.25436 3.50908 3.23228 3.59801C3.21021 3.68693 3.21279 3.7802 3.23975 3.86777L6.53085 13.954C6.56362 14.0494 6.62428 14.1328 6.70497 14.1934C6.78566 14.2539 6.88267 14.2889 6.98345 14.2937C7.08423 14.2985 7.18413 14.273 7.27023 14.2204C7.35633 14.1678 7.42467 14.0906 7.46639 13.9987L8.58905 11.0749C8.62182 10.9995 8.67253 10.9333 8.73676 10.8821C8.80098 10.8308 8.87678 10.796 8.95753 10.7807C9.03829 10.7654 9.12155 10.7701 9.20008 10.7944C9.2786 10.8186 9.35 10.8618 9.40804 10.9199L12.6406 14.1525C12.7351 14.2469 12.8632 14.3 12.9968 14.3C13.1304 14.3 13.2586 14.2469 13.3531 14.1525L14.1525 13.3549C14.247 13.2604 14.3 13.1322 14.3 12.9986C14.3 12.865 14.247 12.7369 14.1525 12.6424L10.92 9.40795Z" stroke="#4A4A4A" stroke-width="1.5" stroke-linecap="round" stroke-linejoin="round"/>
</g>
<defs>
<clipPath id="clip0_0_1087">
<rect width="16" height="16" fill="white"/>
</clipPath>
</defs>
</svg>
